<svg width="149" height="51" viewBox="0 0 149 51" fill="none" xmlns="http://www.w3.org/2000/svg">
<g clip-path="url(#clip0_801_263)">
<path d="M2.56463 4.18182H8.45597L13.0689 13.3118H13.2607L17.8736 4.18182H23.7649L15.7855 18.7131V26H10.544V18.7131L2.56463 4.18182ZM35.3319 18.9368V9.63636H40.5307V26H35.5662V22.9531H35.3958C35.0336 23.9545 34.4157 24.75 33.5421 25.3395C32.6756 25.9219 31.628 26.2131 30.3993 26.2131C29.2843 26.2131 28.3042 25.9574 27.459 25.446C26.6138 24.9347 25.9569 24.2209 25.4881 23.3047C25.0194 22.3814 24.7814 21.3018 24.7743 20.0661V9.63636H29.9838V19.0433C29.9909 19.9311 30.2253 20.6307 30.687 21.142C31.1486 21.6534 31.7772 21.9091 32.5726 21.9091C33.0911 21.9091 33.5563 21.7955 33.9682 21.5682C34.3873 21.3338 34.7175 20.9964 34.959 20.5561C35.2076 20.1087 35.3319 19.5689 35.3319 18.9368ZM43.8466 26V9.63636H48.907V12.6193H49.0774C49.3757 11.5398 49.8622 10.7372 50.5369 10.2116C51.2116 9.67898 51.9964 9.41264 52.8913 9.41264C53.1328 9.41264 53.3814 9.4304 53.6371 9.46591C53.8928 9.49432 54.1307 9.54048 54.3509 9.6044V14.1321C54.1023 14.0469 53.7756 13.9794 53.3707 13.9297C52.973 13.88 52.6179 13.8551 52.3054 13.8551C51.6875 13.8551 51.13 13.9936 50.6328 14.2706C50.1428 14.5405 49.7557 14.9205 49.4716 15.4105C49.1946 15.8935 49.0561 16.4616 49.0561 17.1151V26H43.8466ZM56.4735 26V9.63636H61.6831V26H56.4735ZM59.0836 7.7294C58.3521 7.7294 57.7235 7.48793 57.198 7.00497C56.6724 6.51491 56.4096 5.92543 56.4096 5.23651C56.4096 4.55469 56.6724 3.9723 57.198 3.48935C57.7235 2.99929 58.3521 2.75426 59.0836 2.75426C59.8223 2.75426 60.4508 2.99929 60.9693 3.48935C61.4949 3.9723 61.7576 4.55469 61.7576 5.23651C61.7576 5.92543 61.4949 6.51491 60.9693 7.00497C60.4508 7.48793 59.8223 7.7294 59.0836 7.7294ZM64.9989 26V9.63636H70.2085V26H64.9989ZM67.609 7.7294C66.8775 7.7294 66.2489 7.48793 65.7234 7.00497C65.1978 6.51491 64.935 5.92543 64.935 5.23651C64.935 4.55469 65.1978 3.9723 65.7234 3.48935C66.2489 2.99929 66.8775 2.75426 67.609 2.75426C68.3477 2.75426 68.9762 2.99929 69.4947 3.48935C70.0202 3.9723 70.283 4.55469 70.283 5.23651C70.283 5.92543 70.0202 6.51491 69.4947 7.00497C68.9762 7.48793 68.3477 7.7294 67.609 7.7294Z" fill="white"/>
<path d="M18.1559 47V31.7273H21.8473V37.8572H27.8654V31.7273H31.5494V47H27.8654V40.8626H21.8473V47H18.1559ZM33.8649 47V35.5455H37.4071V37.6335H37.5265C37.7353 36.8778 38.0758 36.3161 38.5481 35.9482C39.0204 35.5753 39.5698 35.3888 40.1962 35.3888C40.3652 35.3888 40.5392 35.4013 40.7182 35.4261C40.8972 35.446 41.0637 35.4783 41.2179 35.5231V38.6925C41.0439 38.6328 40.8152 38.5856 40.5318 38.5508C40.2534 38.516 40.0048 38.4986 39.786 38.4986C39.3535 38.4986 38.9632 38.5955 38.6152 38.7894C38.2722 38.9783 38.0012 39.2443 37.8024 39.5874C37.6085 39.9254 37.5115 40.3232 37.5115 40.7805V47H33.8649ZM45.2821 51.2955C44.8446 51.2955 44.432 51.2607 44.0442 51.1911C43.6564 51.1264 43.3233 51.0394 43.0449 50.93L43.8503 48.2827C44.2083 48.402 44.5314 48.4716 44.8198 48.4915C45.1131 48.5114 45.3642 48.4641 45.573 48.3498C45.7868 48.2404 45.9508 48.044 46.0652 47.7607L46.2069 47.4176L42.1351 35.5455H45.9533L48.0637 43.7188H48.1831L50.3233 35.5455H54.1639L49.8461 48.0962C49.6373 48.7227 49.3414 49.2745 48.9586 49.7518C48.5808 50.234 48.0911 50.6119 47.4895 50.8853C46.8929 51.1587 46.1571 51.2955 45.2821 51.2955ZM65.5625 39.043L62.2141 39.1325C62.1793 38.8938 62.0849 38.6825 61.9308 38.4986C61.7766 38.3097 61.5753 38.163 61.3267 38.0586C61.0831 37.9492 60.7997 37.8945 60.4766 37.8945C60.054 37.8945 59.6935 37.979 59.3952 38.1481C59.1019 38.3171 58.9577 38.5458 58.9627 38.8342C58.9577 39.0579 59.0472 39.2518 59.2312 39.4158C59.4201 39.5799 59.7557 39.7116 60.2379 39.8111L62.4453 40.2287C63.5888 40.4474 64.4389 40.8104 64.9957 41.3175C65.5575 41.8246 65.8409 42.4957 65.8459 43.331C65.8409 44.1165 65.6072 44.8001 65.1449 45.3817C64.6875 45.9634 64.0611 46.4158 63.2656 46.739C62.4702 47.0572 61.5604 47.2163 60.5362 47.2163C58.9006 47.2163 57.6104 46.8807 56.6658 46.2095C55.7262 45.5334 55.1893 44.6286 55.055 43.495L58.657 43.4055C58.7365 43.8232 58.9428 44.1413 59.2759 44.3601C59.609 44.5788 60.0341 44.6882 60.5511 44.6882C61.0185 44.6882 61.3988 44.6012 61.6921 44.4272C61.9854 44.2532 62.1346 44.022 62.1396 43.7337C62.1346 43.4751 62.0202 43.2688 61.7965 43.1147C61.5728 42.9556 61.2223 42.8313 60.745 42.7418L58.7464 42.3615C57.598 42.1527 56.7429 41.7674 56.1811 41.2056C55.6193 40.6388 55.3409 39.918 55.3459 39.043C55.3409 38.2773 55.5447 37.6236 55.9574 37.0817C56.37 36.5348 56.9567 36.1172 57.7173 35.8288C58.478 35.5405 59.3754 35.3963 60.4094 35.3963C61.9606 35.3963 63.1836 35.7219 64.0785 36.3732C64.9734 37.0195 65.468 37.9094 65.5625 39.043ZM71.2879 40.4673V47H67.6412V31.7273H71.1686V37.6484H71.2954C71.5539 36.9425 71.9765 36.3906 72.5631 35.9929C73.1547 35.5952 73.8781 35.3963 74.7332 35.3963C75.5386 35.3963 76.2396 35.5753 76.8362 35.9332C77.4328 36.2862 77.8952 36.7859 78.2233 37.4322C78.5564 38.0785 78.7204 38.8342 78.7155 39.6992V47H75.0688V40.4151C75.0738 39.7788 74.9147 39.2816 74.5915 38.9237C74.2684 38.5657 73.8135 38.3867 73.2268 38.3867C72.844 38.3867 72.5059 38.4712 72.2126 38.6403C71.9243 38.8043 71.6981 39.0405 71.534 39.3487C71.3749 39.657 71.2929 40.0298 71.2879 40.4673ZM84.2209 47.1939C83.4901 47.1939 82.8413 47.0721 82.2745 46.8285C81.7127 46.5799 81.2678 46.207 80.9396 45.7099C80.6165 45.2077 80.4549 44.5788 80.4549 43.8232C80.4549 43.1868 80.5668 42.6499 80.7905 42.2124C81.0142 41.7749 81.3224 41.4194 81.7152 41.146C82.108 40.8725 82.5604 40.6662 83.0724 40.527C83.5845 40.3828 84.1314 40.2859 84.7131 40.2362C85.3643 40.1765 85.8888 40.1143 86.2866 40.0497C86.6843 39.9801 86.9727 39.8832 87.1516 39.7589C87.3356 39.6296 87.4276 39.4482 87.4276 39.2145V39.1772C87.4276 38.7944 87.2958 38.4986 87.0323 38.2898C86.7688 38.081 86.4134 37.9766 85.9659 37.9766C85.4837 37.9766 85.0959 38.081 84.8026 38.2898C84.5092 38.4986 84.3228 38.7869 84.2433 39.1548L80.88 39.0355C80.9794 38.3395 81.2354 37.718 81.6481 37.1712C82.0657 36.6193 82.6374 36.1868 83.3633 35.8736C84.0941 35.5554 84.9716 35.3963 85.9957 35.3963C86.7266 35.3963 87.4002 35.4833 88.0167 35.6573C88.6332 35.8263 89.1701 36.0749 89.6275 36.4031C90.0849 36.7262 90.4379 37.1239 90.6864 37.5962C90.94 38.0685 91.0668 38.608 91.0668 39.2145V47H87.6364V45.4041H87.5469C87.343 45.7919 87.082 46.12 86.7638 46.3885C86.4506 46.657 86.0803 46.8583 85.6527 46.9925C85.2301 47.1268 84.7528 47.1939 84.2209 47.1939ZM85.3469 44.8075C85.7397 44.8075 86.0927 44.728 86.4059 44.5689C86.7241 44.4098 86.9776 44.1911 87.1665 43.9126C87.3555 43.6293 87.4499 43.3011 87.4499 42.9283V41.8395C87.3455 41.8942 87.2188 41.9439 87.0696 41.9886C86.9254 42.0334 86.7663 42.0756 86.5923 42.1154C86.4183 42.1552 86.2393 42.19 86.0554 42.2198C85.8714 42.2496 85.695 42.277 85.5259 42.3018C85.1829 42.3565 84.8896 42.4411 84.646 42.5554C84.4073 42.6697 84.2234 42.8189 84.0941 43.0028C83.9698 43.1818 83.9077 43.3956 83.9077 43.6442C83.9077 44.022 84.0419 44.3104 84.3104 44.5092C84.5838 44.7081 84.9293 44.8075 85.3469 44.8075ZM96.5852 43.9947L96.6001 39.647H97.1072L100.329 35.5455H104.46L99.6726 41.4219H98.7106L96.5852 43.9947ZM93.2965 47V31.7273H96.9432V47H93.2965ZM100.411 47L97.413 42.2422L99.8143 39.6545L104.624 47H100.411ZM110.641 47.2163C109.437 47.2163 108.403 46.9702 107.538 46.478C106.678 45.9808 106.014 45.2898 105.547 44.4048C105.085 43.5149 104.854 42.4833 104.854 41.31C104.854 40.1317 105.085 39.1001 105.547 38.2152C106.014 37.3253 106.678 36.6342 107.538 36.142C108.403 35.6449 109.437 35.3963 110.641 35.3963C111.844 35.3963 112.875 35.6449 113.735 36.142C114.6 36.6342 115.264 37.3253 115.726 38.2152C116.194 39.1001 116.427 40.1317 116.427 41.31C116.427 42.4833 116.194 43.5149 115.726 44.4048C115.264 45.2898 114.6 45.9808 113.735 46.478C112.875 46.9702 111.844 47.2163 110.641 47.2163ZM110.663 44.4645C111.1 44.4645 111.471 44.3303 111.774 44.0618C112.077 43.7933 112.309 43.4205 112.468 42.9432C112.632 42.4659 112.714 41.9141 112.714 41.2876C112.714 40.6513 112.632 40.0945 112.468 39.6172C112.309 39.1399 112.077 38.767 111.774 38.4986C111.471 38.2301 111.1 38.0959 110.663 38.0959C110.21 38.0959 109.828 38.2301 109.514 38.4986C109.206 38.767 108.97 39.1399 108.806 39.6172C108.647 40.0945 108.567 40.6513 108.567 41.2876C108.567 41.9141 108.647 42.4659 108.806 42.9432C108.97 43.4205 109.206 43.7933 109.514 44.0618C109.828 44.3303 110.21 44.4645 110.663 44.4645ZM129.038 35.5455L125.108 47H120.932L117.009 35.5455H120.85L122.96 43.4354H123.079L125.197 35.5455H129.038Z" fill="#EE0000"/>
<rect x="89" y="15" width="24" height="1" fill="#EE0000"/>
<rect x="1" y="33" width="12" height="0.999999" transform="rotate(90 1 33)" fill="#EE0000"/>
</g>
<defs>
<clipPath id="clip0_801_263">
<rect width="149" height="51" fill="white"/>
</clipPath>
</defs>
</svg>
