<svg width="90" height="27" viewBox="0 0 90 27" fill="none" xmlns="http://www.w3.org/2000/svg">
<path d="M24.6081 16.6824C23.1447 16.6824 21.7734 16.0793 20.5275 15.0975L20.8309 13.7115L20.8441 13.6601C21.1142 12.1844 21.9712 9.70744 24.6081 9.70744C26.5856 9.70744 28.1941 11.2732 28.1941 13.1981C28.1874 15.1166 26.5791 16.6824 24.6081 16.6824ZM24.6081 6.17195C21.2394 6.17195 18.6292 8.30228 17.568 11.8058C15.9463 9.43798 14.7201 6.59548 14.0017 4.20203H10.3761V13.3842C10.3761 15.1937 8.85989 16.6694 7.00094 16.6694C5.14198 16.6694 3.62597 15.1937 3.62597 13.3842V4.20203H4.13476e-05V13.3842C-0.013149 17.1444 3.13125 20.2307 6.99408 20.2307C10.8571 20.2307 14.0015 17.1444 14.0015 13.3842V11.8443C14.7067 13.2751 15.5702 14.7188 16.6184 16.0022L14.3968 26.166H18.1082L19.7166 18.7934C21.1272 19.6724 22.7489 20.2244 24.6079 20.2244C28.5828 20.2244 31.8195 17.0545 31.8195 13.1852C31.8195 9.32242 28.5829 6.17195 24.6081 6.17195Z" fill="#6FDA44"/>
<path d="M42.8874 6.56979L45.2275 15.7519L47.8051 6.56979H50.8768L46.9152 19.8393H43.8432L41.4109 10.5993L38.985 19.8328H35.9132L31.9512 6.56345H35.0231L37.6005 15.7456L39.9406 6.56345H42.8872V6.56996L42.8874 6.56979ZM58.2268 6.17194C54.2388 6.17194 51.0087 9.32241 51.0087 13.1981C51.0087 17.0802 54.2453 20.2244 58.2268 20.2244C62.215 20.2244 65.4516 17.0802 65.4516 13.1981C65.4516 9.31607 62.215 6.17194 58.2268 6.17194ZM58.2268 17.3368C55.8802 17.3368 53.9816 15.4888 53.9816 13.2046C53.9816 10.9202 55.8867 9.0723 58.2268 9.0723C60.5736 9.0723 62.472 10.9202 62.472 13.2046C62.472 15.4825 60.5736 17.3368 58.2268 17.3368ZM74.2254 9.54068C72.1623 9.54068 70.4945 11.1704 70.4945 13.1724V19.8328H67.4027V6.56979H70.4945V8.61024C70.4945 8.61024 71.8128 6.56328 74.5221 6.56328H75.4713V9.54068H74.2254ZM84.6013 12.6848C86.7962 11.4784 88.2862 9.18768 88.2862 6.56328H85.1943C85.1943 8.77699 83.3488 10.5737 81.0746 10.5737H80.6592V0.165955H77.5677V19.8327H80.6592V13.5831H81.0285C81.3317 13.5831 81.7272 13.7757 81.9052 14.0129L86.2953 19.8328H90L84.6013 12.6848Z" fill="black"/>
</svg>
