<svg width="47" height="47" viewBox="0 0 47 47" fill="none" xmlns="http://www.w3.org/2000/svg">
<g clip-path="url(#clip0_226_663)">
<path d="M23.5 0C18.8521 0 14.3087 1.37825 10.4441 3.96046C6.57956 6.54268 3.5675 10.2129 1.78884 14.5069C0.0101821 18.801 -0.455196 23.5261 0.451557 28.0846C1.35831 32.6432 3.59647 36.8305 6.883 40.117C10.1695 43.4035 14.3568 45.6417 18.9154 46.5485C23.4739 47.4552 28.199 46.9898 32.4931 45.2112C36.7871 43.4325 40.4573 40.4205 43.0395 36.5559C45.6218 32.6913 47 28.1479 47 23.5C47 17.2674 44.5241 11.2901 40.117 6.88299C35.7099 2.47589 29.7326 0 23.5 0V0ZM30.1851 15.2936C30.1851 15.7357 29.9996 15.912 29.5667 15.912C28.7349 15.912 27.9032 15.912 27.0745 15.946C26.2458 15.98 25.7944 16.3572 25.7944 17.223C25.7758 18.1507 25.7944 19.0597 25.7944 20.0059H29.3534C29.8605 20.0059 30.0336 20.1791 30.0336 20.6893C30.0336 21.9261 30.0336 23.1691 30.0336 24.4184C30.0336 24.9224 29.8728 25.0801 29.3626 25.0832H25.7634V35.1449C25.7634 35.6829 25.5965 35.853 25.0646 35.853H21.1933C20.7264 35.853 20.544 35.6705 20.544 35.2036V25.0986H17.4704C16.988 25.0986 16.8149 24.9224 16.8149 24.4369C16.8149 23.1856 16.8149 21.9354 16.8149 20.6862C16.8149 20.2038 16.9973 20.0214 17.4735 20.0214H20.544V17.3158C20.5075 16.1005 20.7991 14.8978 21.3881 13.8341C22.0004 12.7602 22.9815 11.945 24.1494 11.5397C24.9073 11.264 25.7083 11.1257 26.5148 11.1316H29.5544C29.9903 11.1316 30.1728 11.3233 30.1728 11.75C30.1882 12.9405 30.1882 14.1186 30.1851 15.2936Z" fill="black"/>
</g>
<defs>
<clipPath id="clip0_226_663">
<rect width="47" height="47" fill="white"/>
</clipPath>
</defs>
</svg>
